<svg viewBox="0 0 24 24" fill="none" xmlns="http://www.w3.org/2000/svg">
<path fill-rule="evenodd" clip-rule="evenodd" d="M22.5 12C22.5 9.21523 21.3938 6.54451 19.4246 4.57538C17.4555 2.60625 14.7848 1.5 12 1.5C9.21523 1.5 6.54451 2.60625 4.57538 4.57538C2.60625 6.54451 1.5 9.21522 1.5 12C1.5 14.7848 2.60625 17.4555 4.57538 19.4246C6.54451 21.3938 9.21523 22.5 12 22.5C14.7848 22.5 17.4555 21.3938 19.4246 19.4246C21.3938 17.4555 22.5 14.7848 22.5 12V12ZM1.04907e-06 12C1.3273e-06 8.8174 1.26428 5.76515 3.51472 3.51472C5.76516 1.26428 8.8174 -1.3273e-06 12 -1.04907e-06C15.1826 -7.70842e-07 18.2348 1.26428 20.4853 3.51472C22.7357 5.76515 24 8.8174 24 12C24 15.1826 22.7357 18.2348 20.4853 20.4853C18.2348 22.7357 15.1826 24 12 24C8.8174 24 5.76515 22.7357 3.51472 20.4853C1.26428 18.2348 7.70842e-07 15.1826 1.04907e-06 12V12ZM11.25 6.75C11.25 6.55109 11.329 6.36032 11.4697 6.21967C11.6103 6.07902 11.8011 6 12 6C12.1989 6 12.3897 6.07902 12.5303 6.21967C12.671 6.36032 12.75 6.55109 12.75 6.75L12.75 15.4395L15.969 12.219C16.1098 12.0782 16.3008 11.9991 16.5 11.9991C16.6992 11.9991 16.8902 12.0782 17.031 12.219C17.1718 12.3598 17.2509 12.5508 17.2509 12.75C17.2509 12.9492 17.1718 13.1402 17.031 13.281L12.531 17.781C12.4613 17.8508 12.3786 17.9063 12.2875 17.9441C12.1963 17.9819 12.0987 18.0013 12 18.0013C11.9013 18.0013 11.8037 17.9819 11.7126 17.9441C11.6214 17.9063 11.5387 17.8508 11.469 17.781L6.969 13.281C6.82817 13.1402 6.74905 12.9492 6.74905 12.75C6.74905 12.5508 6.82817 12.3598 6.969 12.219C7.10983 12.0782 7.30084 11.9991 7.5 11.9991C7.69916 11.9991 7.89017 12.0782 8.031 12.219L11.25 15.4395L11.25 6.75Z" fill="#F3C129"/>
</svg>
