<svg width="8" height="8" viewBox="0 0 8 8" fill="none" xmlns="http://www.w3.org/2000/svg">
<path d="M0.645917 0.646039C0.692363 0.599476 0.747538 0.562533 0.808283 0.537326C0.869028 0.51212 0.93415 0.499146 0.999917 0.499146C1.06568 0.499146 1.13081 0.51212 1.19155 0.537326C1.2523 0.562533 1.30747 0.599476 1.35392 0.646039L3.99992 3.29304L6.64592 0.646039C6.6924 0.599551 6.74759 0.562675 6.80833 0.537516C6.86907 0.512357 6.93417 0.499407 6.99992 0.499407C7.06566 0.499407 7.13076 0.512357 7.1915 0.537516C7.25224 0.562675 7.30743 0.599551 7.35392 0.646039C7.4004 0.692527 7.43728 0.747716 7.46244 0.808455C7.4876 0.869195 7.50055 0.934295 7.50055 1.00004C7.50055 1.06578 7.4876 1.13088 7.46244 1.19162C7.43728 1.25236 7.4004 1.30755 7.35392 1.35404L4.70692 4.00004L7.35392 6.64604C7.4004 6.69253 7.43728 6.74772 7.46244 6.80846C7.4876 6.86919 7.50055 6.9343 7.50055 7.00004C7.50055 7.06578 7.4876 7.13088 7.46244 7.19162C7.43728 7.25236 7.4004 7.30755 7.35392 7.35404C7.30743 7.40053 7.25224 7.4374 7.1915 7.46256C7.13076 7.48772 7.06566 7.50067 6.99992 7.50067C6.93417 7.50067 6.86907 7.48772 6.80833 7.46256C6.74759 7.4374 6.6924 7.40053 6.64592 7.35404L3.99992 4.70704L1.35392 7.35404C1.30743 7.40053 1.25224 7.4374 1.1915 7.46256C1.13076 7.48772 1.06566 7.50067 0.999917 7.50067C0.934173 7.50067 0.869073 7.48772 0.808333 7.46256C0.747594 7.4374 0.692405 7.40053 0.645917 7.35404C0.599429 7.30755 0.562553 7.25236 0.537394 7.19162C0.512234 7.13088 0.499285 7.06578 0.499285 7.00004C0.499285 6.9343 0.512234 6.86919 0.537394 6.80846C0.562553 6.74772 0.599429 6.69253 0.645917 6.64604L3.29292 4.00004L0.645917 1.35404C0.599354 1.30759 0.562411 1.25242 0.537204 1.19167C0.511998 1.13093 0.499023 1.06581 0.499023 1.00004C0.499023 0.934272 0.511998 0.869151 0.537204 0.808405C0.562411 0.74766 0.599354 0.692485 0.645917 0.646039Z" fill="#DBDBDB"/>
</svg>
