<svg width="28" height="24" viewBox="0 0 28 24" fill="none" xmlns="http://www.w3.org/2000/svg">
<path d="M15.7152 0.972616C15.542 0.677041 15.2923 0.43147 14.9912 0.260698C14.6901 0.0899261 14.3484 0 14.0005 0C13.6526 0 13.3109 0.0899261 13.0098 0.260698C12.7088 0.43147 12.459 0.677041 12.2858 0.972616L0.288177 20.9712C-0.511432 22.3047 0.447399 24 2.00287 24H25.9964C27.5519 24 28.5124 22.303 27.7111 20.9712L15.7152 0.972616ZM13.997 6.85888C14.9331 6.85888 15.6662 7.6508 15.5717 8.56442L14.9593 14.5758C14.9388 14.812 14.8285 15.032 14.6503 15.1923C14.4721 15.3526 14.2389 15.4415 13.997 15.4415C13.7551 15.4415 13.5219 15.3526 13.3438 15.1923C13.1656 15.032 13.0553 14.812 13.0347 14.5758L12.4223 8.56442C12.4003 8.34884 12.4246 8.13114 12.4938 7.92534C12.5629 7.71954 12.6752 7.53021 12.8236 7.36953C12.9719 7.20886 13.153 7.08041 13.3551 6.99245C13.5572 6.9045 13.7759 6.859 13.997 6.85888ZM14.0005 17.1436C14.4646 17.1436 14.9096 17.3241 15.2377 17.6456C15.5659 17.9671 15.7502 18.4031 15.7502 18.8577C15.7502 19.3123 15.5659 19.7483 15.2377 20.0697C14.9096 20.3912 14.4646 20.5718 14.0005 20.5718C13.5365 20.5718 13.0914 20.3912 12.7633 20.0697C12.4352 19.7483 12.2508 19.3123 12.2508 18.8577C12.2508 18.4031 12.4352 17.9671 12.7633 17.6456C13.0914 17.3241 13.5365 17.1436 14.0005 17.1436Z" fill="#FFF5F5"/>
</svg>
