<svg viewBox="0 0 19 19" xmlns="http://www.w3.org/2000/svg">
<path d="M9.03226 16.9355C6.93619 16.9355 4.92598 16.1028 3.44383 14.6207C1.96169 13.1385 1.12903 11.1283 1.12903 9.03226C1.12903 6.93619 1.96169 4.92598 3.44383 3.44383C4.92598 1.96169 6.93619 1.12903 9.03226 1.12903C11.1283 1.12903 13.1385 1.96169 14.6207 3.44383C16.1028 4.92598 16.9355 6.93619 16.9355 9.03226C16.9355 11.1283 16.1028 13.1385 14.6207 14.6207C13.1385 16.1028 11.1283 16.9355 9.03226 16.9355ZM9.03226 18.0645C11.4278 18.0645 13.7252 17.1129 15.419 15.419C17.1129 13.7252 18.0645 11.4278 18.0645 9.03226C18.0645 6.63675 17.1129 4.33936 15.419 2.64549C13.7252 0.95161 11.4278 0 9.03226 0C6.63675 0 4.33936 0.95161 2.64549 2.64549C0.95161 4.33936 0 6.63675 0 9.03226C0 11.4278 0.95161 13.7252 2.64549 15.419C4.33936 17.1129 6.63675 18.0645 9.03226 18.0645Z"/>
<path d="M10.0821 7.43807L7.49663 7.7621L7.40405 8.19113L7.91212 8.28484C8.24405 8.36387 8.30954 8.48355 8.23728 8.81436L7.40405 12.7298C7.18502 13.7426 7.5226 14.219 8.31631 14.219C8.93163 14.219 9.64631 13.9345 9.97034 13.5439L10.0697 13.0742C9.84389 13.2729 9.51421 13.3519 9.29518 13.3519C8.9847 13.3519 8.87179 13.134 8.95196 12.7502L10.0821 7.43807ZM10.1611 5.08065C10.1611 5.38008 10.0422 5.66726 9.83046 5.87899C9.61873 6.09073 9.33156 6.20968 9.03212 6.20968C8.73268 6.20968 8.44551 6.09073 8.23377 5.87899C8.02204 5.66726 7.90309 5.38008 7.90309 5.08065C7.90309 4.78121 8.02204 4.49403 8.23377 4.2823C8.44551 4.07057 8.73268 3.95161 9.03212 3.95161C9.33156 3.95161 9.61873 4.07057 9.83046 4.2823C10.0422 4.49403 10.1611 4.78121 10.1611 5.08065Z"/>
</svg>
