<svg width="8" height="8" viewBox="0 0 8 8" fill="none" xmlns="http://www.w3.org/2000/svg">
<path fill-rule="evenodd" clip-rule="evenodd" d="M3.99986 3.06035e-07C3.86725 3.17628e-07 3.74007 0.0526788 3.6463 0.146447C3.55253 0.240215 3.49986 0.367392 3.49986 0.5L3.49986 6.293L1.35386 4.146C1.30737 4.09951 1.25218 4.06264 1.19144 4.03748C1.1307 4.01232 1.0656 3.99937 0.999857 3.99937C0.934113 3.99937 0.869013 4.01232 0.808273 4.03748C0.747534 4.06264 0.692345 4.09951 0.645857 4.146C0.599369 4.19249 0.562492 4.24768 0.537333 4.30842C0.512174 4.36916 0.499226 4.43426 0.499226 4.5C0.499226 4.56574 0.512174 4.63084 0.537333 4.69158C0.562493 4.75232 0.599369 4.80751 0.645857 4.854L3.64586 7.854C3.6923 7.90056 3.74748 7.93751 3.80822 7.96271C3.86897 7.98792 3.93409 8.00089 3.99986 8.00089C4.06562 8.00089 4.13075 7.98792 4.19149 7.96271C4.25224 7.93751 4.30741 7.90056 4.35386 7.854L7.35386 4.854C7.40034 4.80751 7.43722 4.75232 7.46238 4.69158C7.48754 4.63084 7.50049 4.56574 7.50049 4.5C7.50049 4.43426 7.48754 4.36916 7.46238 4.30842C7.43722 4.24768 7.40034 4.19249 7.35386 4.146C7.25997 4.05211 7.13263 3.99937 6.99986 3.99937C6.93411 3.99937 6.86901 4.01232 6.80827 4.03748C6.74753 4.06264 6.69234 4.09951 6.64586 4.146L4.49986 6.293L4.49986 0.5C4.49986 0.367392 4.44718 0.240215 4.35341 0.146447C4.25964 0.0526788 4.13246 2.94442e-07 3.99986 3.06035e-07V3.06035e-07Z" fill="#2E2E2E"/>
</svg>
