<svg width="11" height="13" viewBox="0 0 11 13" fill="none" xmlns="http://www.w3.org/2000/svg">
<path fill-rule="evenodd" clip-rule="evenodd" d="M5.49993 0.75C5.69056 0.75 5.87337 0.825725 6.00817 0.960517C6.14296 1.09531 6.21868 1.27813 6.21868 1.46875L6.21868 9.79619L9.30356 6.70987C9.37038 6.64305 9.44972 6.59004 9.53703 6.55387C9.62434 6.51771 9.71793 6.49909 9.81243 6.49909C9.90694 6.49909 10.0005 6.51771 10.0878 6.55387C10.1751 6.59004 10.2545 6.64305 10.3213 6.70987C10.3881 6.7767 10.4411 6.85604 10.4773 6.94335C10.5135 7.03066 10.5321 7.12424 10.5321 7.21875C10.5321 7.31326 10.5135 7.40684 10.4773 7.49415C10.4411 7.58146 10.3881 7.6608 10.3213 7.72762L6.00881 12.0401C5.94204 12.1071 5.86273 12.1602 5.7754 12.1964C5.68808 12.2326 5.59447 12.2513 5.49993 12.2513C5.40539 12.2513 5.31178 12.2326 5.22446 12.1964C5.13714 12.1602 5.05782 12.1071 4.99106 12.0401L0.678557 7.72762C0.61173 7.6608 0.55872 7.58146 0.522554 7.49415C0.486388 7.40684 0.467773 7.31326 0.467773 7.21875C0.467773 7.12424 0.486388 7.03066 0.522554 6.94335C0.55872 6.85604 0.61173 6.7767 0.678557 6.70987C0.813519 6.57491 0.996567 6.49909 1.18743 6.49909C1.28194 6.49909 1.37552 6.51771 1.46283 6.55387C1.55015 6.59004 1.62948 6.64305 1.69631 6.70987L4.78118 9.79619L4.78118 1.46875C4.78118 1.27813 4.85691 1.09531 4.9917 0.960517C5.12649 0.825725 5.30931 0.75 5.49993 0.75Z" fill="white"/>
</svg>
