<svg width="22" height="22" viewBox="0 0 22 22" fill="none" xmlns="http://www.w3.org/2000/svg">
<path d="M15.0837 6.83376C15.2774 6.64936 15.5351 6.54741 15.8025 6.54944C16.07 6.55146 16.3261 6.6573 16.517 6.84461C16.7079 7.03192 16.8186 7.28606 16.8256 7.5534C16.8327 7.82074 16.7356 8.08037 16.5549 8.27751L11.0687 15.1388C10.9743 15.2404 10.8605 15.3219 10.7339 15.3785C10.6073 15.4351 10.4706 15.4656 10.332 15.4682C10.1934 15.4707 10.0557 15.4453 9.92708 15.3935C9.7985 15.3416 9.6817 15.2643 9.58366 15.1663L5.94541 11.528C5.84409 11.4336 5.76283 11.3198 5.70646 11.1933C5.6501 11.0668 5.61979 10.9302 5.61735 10.7917C5.6149 10.6533 5.64038 10.5157 5.69224 10.3873C5.74411 10.2589 5.82131 10.1423 5.91923 10.0443C6.01716 9.94641 6.13381 9.86921 6.26221 9.81734C6.39062 9.76548 6.52816 9.74001 6.66663 9.74245C6.8051 9.74489 6.94165 9.7752 7.06815 9.83156C7.19465 9.88793 7.3085 9.96919 7.40291 10.0705L10.2822 12.9484L15.0575 6.86401C15.0661 6.85343 15.0753 6.84333 15.085 6.83376H15.0837Z" fill="#72E77A"/>
</svg>
