<svg width="33" height="31" viewBox="0 0 33 31" fill="none" xmlns="http://www.w3.org/2000/svg">
<path d="M12.0039 10.6562C12.0039 11.427 11.6878 12.1663 11.1252 12.7113C10.5626 13.2563 9.79956 13.5625 9.00391 13.5625C8.20826 13.5625 7.44519 13.2563 6.88259 12.7113C6.31998 12.1663 6.00391 11.427 6.00391 10.6562C6.00391 9.88546 6.31998 9.14625 6.88259 8.60122C7.44519 8.05619 8.20826 7.75 9.00391 7.75C9.79956 7.75 10.5626 8.05619 11.1252 8.60122C11.6878 9.14625 12.0039 9.88546 12.0039 10.6562Z" fill="#6F8D95"/>
<path d="M4.00391 1.9375C2.94304 1.9375 1.92562 2.34576 1.17548 3.07246C0.425334 3.79916 0.00390625 4.78479 0.00390625 5.8125V25.1875C0.00390625 26.2152 0.425334 27.2008 1.17548 27.9275C1.92562 28.6542 2.94304 29.0625 4.00391 29.0625H28.0039C29.0648 29.0625 30.0822 28.6542 30.8323 27.9275C31.5825 27.2008 32.0039 26.2152 32.0039 25.1875V5.8125C32.0039 4.78479 31.5825 3.79916 30.8323 3.07246C30.0822 2.34576 29.0648 1.9375 28.0039 1.9375H4.00391V1.9375ZM28.0039 3.875C28.5343 3.875 29.043 4.07913 29.4181 4.44248C29.7932 4.80583 30.0039 5.29864 30.0039 5.8125V18.4062L22.4499 14.6339C22.2624 14.5429 22.05 14.5113 21.8429 14.5437C21.6358 14.576 21.4444 14.6706 21.2959 14.8141L13.8759 22.0022L8.55591 18.569C8.36383 18.4451 8.13343 18.3894 7.90378 18.4113C7.67414 18.4332 7.45937 18.5313 7.29591 18.6891L2.00391 23.25V5.8125C2.00391 5.29864 2.21462 4.80583 2.58969 4.44248C2.96477 4.07913 3.47347 3.875 4.00391 3.875H28.0039Z" fill="#6F8D95"/>
</svg>
